<?xml version="1.0" standalone="no"?>
<!DOCTYPE svg PUBLIC "-//W3C//DTD SVG 20010904//EN"
 "http://www.w3.org/TR/2001/REC-SVG-20010904/DTD/svg10.dtd">
<svg version="1.0" xmlns="http://www.w3.org/2000/svg"
 width="498.000000pt" height="280.000000pt" viewBox="0 0 498.000000 280.000000"
 preserveAspectRatio="xMidYMid meet">

<g transform="translate(0.000000,280.000000) scale(0.100000,-0.100000)"
fill="#000000" stroke="none">
<path d="M0 1400 l0 -1400 2490 0 2490 0 0 1400 0 1400 -2490 0 -2490 0 0
-1400z m3270 1221 c0 -11 4 -22 9 -25 14 -9 19 -55 7 -64 -6 -5 -25 -9 -42
-10 -28 -2 -31 1 -29 25 3 61 55 130 55 74z m5 -493 c9 -61 -2 -111 -21 -104
-8 3 -13 2 -10 -3 8 -13 -35 -21 -54 -11 -10 5 -20 6 -24 3 -13 -13 -51 -9
-66 6 -8 9 -12 12 -7 7 4 -6 7 -13 7 -16 0 -6 -121 -6 -145 0 -5 1 -12 1 -15
0 -20 -7 -40 -7 -40 2 0 6 -6 6 -15 -2 -8 -7 -29 -10 -52 -6 -21 3 -45 5 -53
6 -12 0 -13 2 -1 9 9 6 10 11 2 15 -6 4 -11 4 -11 -1 -1 -32 -50 -39 -50 -8 0
22 -17 26 -31 8 -8 -10 -9 -14 -2 -10 6 4 15 3 18 -3 4 -6 3 -10 -2 -9 -4 1
-10 0 -13 -1 -44 -17 -55 -3 -67 83 -5 36 -4 37 25 37 25 0 30 4 27 20 -3 17
2 20 34 20 20 0 43 -6 50 -12 11 -10 13 -10 7 0 -5 8 1 12 18 12 20 0 26 -5
26 -22 0 -18 2 -20 9 -8 6 8 7 18 5 22 -8 13 149 7 165 -6 11 -8 13 -8 8 1
-11 18 9 21 145 19 l127 -1 6 -47z m15 -418 l218 0 0 -140 c-1 -82 -5 -143
-11 -147 -5 -3 -23 -6 -38 -5 -16 0 -29 -4 -29 -9 0 -5 -5 -9 -11 -9 -5 0 -7
5 -4 10 7 12 -32 10 -50 -2 -16 -10 -16 34 0 52 16 17 14 45 -3 62 -7 7 -12
18 -12 25 0 7 -9 13 -20 13 -17 0 -19 -3 -11 -18 15 -27 -7 -48 -25 -24 -13
16 -13 16 -14 -1 0 -10 11 -22 24 -27 20 -7 23 -13 17 -41 l-6 -32 -105 2
c-57 1 -101 -1 -97 -5 4 -4 1 -14 -6 -23 -10 -13 -7 -12 16 2 25 16 32 15 28
-7 -1 -5 9 -2 23 8 33 21 53 22 36 1 -14 -17 -3 -20 20 -5 9 5 19 5 26 -1 8
-7 14 -6 19 1 9 14 35 13 35 -3 0 -18 47 -14 70 6 18 15 20 15 29 -1 9 -15 11
-15 30 2 19 17 26 15 22 -7 -1 -4 8 -3 20 4 20 10 21 9 17 -15 -3 -14 -1 -26
3 -26 5 0 9 -9 9 -20 0 -14 -7 -20 -21 -20 -18 0 -20 4 -15 25 6 22 3 25 -21
24 -17 -1 -21 -3 -10 -6 9 -2 17 -13 17 -24 0 -15 -7 -19 -35 -19 -28 0 -35 4
-35 19 0 11 6 22 13 24 6 3 2 6 -10 6 -18 1 -23 -5 -23 -24 0 -21 -5 -25 -30
-25 -23 0 -30 5 -30 19 0 11 6 22 13 24 6 3 -4 5 -23 5 -19 0 -29 -2 -22 -5 6
-2 12 -13 12 -24 0 -15 -7 -19 -35 -19 -41 0 -49 25 -12 40 18 7 13 9 -23 8
-25 0 -37 -2 -27 -5 9 -2 17 -13 17 -24 0 -15 -7 -19 -35 -19 -28 0 -35 4 -35
19 0 11 6 22 13 24 6 3 0 6 -14 6 -23 1 -26 -2 -21 -24 3 -20 0 -25 -17 -25
-14 0 -21 6 -21 20 0 11 5 20 12 20 9 0 9 3 0 12 -7 7 -8 17 -2 29 12 21 2 52
-12 43 -7 -4 -8 5 -3 26 6 27 3 36 -14 49 l-21 16 20 43 c17 34 26 42 48 42
l27 0 -32 21 c-17 11 -34 32 -38 47 -4 15 -12 31 -18 35 -8 6 -5 7 6 3 10 -3
117 -6 237 -6z"/>
<path d="M3107 1545 c-4 -8 -3 -16 1 -19 4 -3 9 4 9 15 2 23 -3 25 -10 4z"/>
<path d="M3142 1504 c-11 -12 -9 -13 7 -11 27 4 35 13 19 20 -7 2 -19 -2 -26
-9z"/>
<path d="M3101 1471 c-11 -7 -10 -11 6 -19 15 -9 19 -7 20 9 2 21 -5 23 -26
10z"/>
</g>
</svg>
